HIERARCHY
ROOT Hips
{
    OFFSET 0.000000 0.000000 0.000000
    CHANNELS 6 Xposition Yposition Zposition Zrotation Xrotation Yrotation
    JOINT Spine
    {
        OFFSET -0.000000 0.081317 0.000000
        CHANNELS 3 Zrotation Xrotation Yrotation
        JOINT Spine1
        {
            OFFSET -0.000000 0.225200 0.000000
            CHANNELS 3 Zrotation Xrotation Yrotation
            JOINT Neck
            {
                OFFSET -0.000000 0.224275 0.020389
                CHANNELS 3 Zrotation Xrotation Yrotation
                JOINT Head
                {
                    OFFSET -0.000000 0.138833 -0.019833
                    CHANNELS 3 Zrotation Xrotation Yrotation
                    End Site
                    {
                        OFFSET -0.000000 0.198333 0.000000
                    }
                }
            }
            JOINT LeftShoulder
            {
                OFFSET 0.039732 0.208237 -0.000812
                CHANNELS 3 Zrotation Xrotation Yrotation
                JOINT LeftArm
                {
                    OFFSET 0.110955 0.000000 0.000000
                    CHANNELS 3 Zrotation Xrotation Yrotation
                    JOINT LeftForeArm
                    {
                        OFFSET 0.324523 0.000000 0.000000
                        CHANNELS 3 Zrotation Xrotation Yrotation
                        JOINT LeftHand
                        {
                            OFFSET 0.302601 0.000000 0.000000
                            CHANNELS 3 Zrotation Xrotation Yrotation
                            End Site
                            {
                                OFFSET 0.148750 0.000000 0.000000
                            }
                        }
                    }
                }
            }
            JOINT RightShoulder
            {
                OFFSET -0.039598 0.208237 -0.000812
                CHANNELS 3 Zrotation Xrotation Yrotation
                JOINT RightArm
                {
                    OFFSET -0.110955 0.000000 0.000000
                    CHANNELS 3 Zrotation Xrotation Yrotation
                    JOINT RightForeArm
                    {
                        OFFSET -0.324523 0.000000 0.000000
                        CHANNELS 3 Zrotation Xrotation Yrotation
                        JOINT RightHand
                        {
                            OFFSET -0.302601 0.000000 0.000000
                            CHANNELS 3 Zrotation Xrotation Yrotation
                            End Site
                            {
                                OFFSET -0.148750 0.000000 0.000000
                            }
                        }
                    }
                }
            }
        }
    }
    JOINT LeftUpLeg
    {
        OFFSET 0.099167 0.000000 0.000000
        CHANNELS 3 Zrotation Xrotation Yrotation
        JOINT LeftLeg
        {
            OFFSET -0.000000 -0.380753 0.000000
            CHANNELS 3 Zrotation Xrotation Yrotation
            JOINT LeftFoot
            {
                OFFSET -0.000000 -0.440093 0.000000
                CHANNELS 3 Zrotation Xrotation Yrotation
                JOINT LeftToeBase
                {
                    OFFSET -0.000000 -0.064458 0.148750
                    CHANNELS 3 Zrotation Xrotation Yrotation
                    End Site
                    {
                        OFFSET -0.000000 0.000000 0.039667
                    }
                }
            }
        }
    }
    JOINT RightUpLeg
    {
        OFFSET -0.099167 0.000000 0.000000
        CHANNELS 3 Zrotation Xrotation Yrotation
        JOINT RightLeg
        {
            OFFSET -0.000000 -0.380753 0.000000
            CHANNELS 3 Zrotation Xrotation Yrotation
            JOINT RightFoot
            {
                OFFSET -0.000000 -0.440093 0.000000
                CHANNELS 3 Zrotation Xrotation Yrotation
                JOINT RightToeBase
                {
                    OFFSET -0.000000 -0.064458 0.148750
                    CHANNELS 3 Zrotation Xrotation Yrotation
                    End Site
                    {
                        OFFSET -0.000000 0.000000 0.039667
                    }
                }
            }
        }
    }
}
MOTION
Frames:    11
Frame Time:    0.010000
-0.586399    0.922170    -0.265680    -8.341748    -2.794927    87.056427    2.068685    -24.948463    -2.622674    1.422374    38.423672    -1.527886    11.233502    38.907524    -21.418247    22.375610    -29.290091    -10.997336    -10.464537    -3.656252    -9.101458    -51.453823    -52.775558    -16.124445    16.346996    -3.135017    -112.562691    54.067142    10.616831    -21.691545    2.272059    -10.408262    5.584991    42.173553    10.530550    -10.632350    -119.388397    -41.905491    16.011143    -14.583086    -17.091450    -5.930194    14.932902    -13.538600    34.234348    3.231184    13.450098    35.531490    11.025047    23.719038    -52.365208    0.000000    0.000000    0.000000    -9.712339    -16.666439    -19.290701    3.082300    13.429585    -0.588255    2.516097    28.196438    -14.471333    0.000000    0.000000    0.000000    
-0.588443    0.920582    -0.266681    -8.450799    -2.865901    87.338570    1.962107    -24.814014    -2.701230    1.628279    38.570374    -1.618981    10.882139    39.005199    -21.275887    22.977835    -29.210760    -10.695391    -10.488989    -3.707931    -9.156200    -51.355774    -52.881847    -16.091961    16.404032    -3.274746    -112.531609    54.042465    10.637158    -21.545139    2.088275    -10.431389    5.714000    42.183754    10.208660    -10.650989    -119.721397    -41.771591    15.692544    -14.914010    -17.248564    -6.202987    15.208023    -14.472520    34.523186    3.473608    14.519852    34.758682    10.394843    24.281702    -51.758678    0.000000    0.000000    0.000000    -10.033970    -17.221430    -19.951662    3.135128    14.248396    -0.547039    2.378885    27.837942    -14.169713    0.000000    0.000000    0.000000    
-0.590482    0.918967    -0.267665    -8.533199    -2.959634    87.606224    2.008618    -24.641060    -2.706318    1.552543    38.715122    -1.598501    11.071191    39.100014    -21.368608    23.309998    -29.412970    -10.564320    -10.342990    -3.732484    -9.160720    -51.315582    -52.909554    -16.165752    16.454237    -3.418140    -112.497093    54.145618    10.571924    -21.472578    2.076641    -10.513978    5.769882    42.181118    10.015678    -10.630404    -120.018509    -41.694122    15.398323    -15.185334    -17.467300    -6.419802    15.479479    -15.301231    34.749355    3.805812    15.457084    34.315403    10.115258    24.094774    -52.088715    0.000000    0.000000    0.000000    -10.328428    -17.760801    -20.552229    3.168618    15.074316    -0.486385    2.255060    27.524391    -13.897501    0.000000    0.000000    0.000000    
-0.592480    0.917247    -0.268675    -8.623738    -3.065667    87.837921    2.153887    -24.472197    -2.667392    1.356700    38.850594    -1.527966    11.657378    39.090885    -21.628025    23.252544    -29.745998    -10.655489    -10.129732    -3.795831    -9.112754    -51.295406    -52.957031    -16.236357    16.424883    -3.400422    -112.493454    54.294582    10.502266    -21.480082    2.116827    -10.546236    5.817125    42.168293    9.928657    -10.561255    -120.403473    -41.553192    15.009556    -15.466174    -17.724333    -6.672347    15.840398    -16.281614    35.073551    4.138281    16.983904    32.463562    8.794688    23.303421    -50.261608    0.000000    0.000000    0.000000    -10.614940    -18.322239    -21.055607    3.222421    15.917738    -0.431538    2.166144    27.194597    -13.716318    0.000000    0.000000    0.000000    
-0.594497    0.915427    -0.269648    -8.715407    -3.191361    88.047897    2.267386    -24.314812    -2.638466    1.234304    38.969604    -1.483514    11.697040    39.212528    -21.649502    23.789324    -29.828087    -10.420554    -9.979005    -3.819754    -9.141059    -51.159523    -53.143589    -16.226130    16.359200    -3.260577    -112.522079    54.414818    10.505820    -21.510090    2.193001    -10.529764    5.959289    42.119164    9.858073    -10.499931    -120.746895    -41.407154    14.639014    -15.683796    -17.973730    -6.924258    16.211485    -17.149128    35.304688    4.490083    18.254360    31.851961    8.437241    21.722042    -50.434311    0.000000    0.000000    0.000000    -10.948563    -18.878107    -21.290205    3.468578    16.774263    -0.439569    2.177886    26.837593    -13.791130    0.000000    0.000000    0.000000    
-0.596532    0.913473    -0.270644    -8.813308    -3.320468    88.234352    2.333168    -24.173882    -2.593094    1.278849    39.111412    -1.489376    11.620086    39.248421    -21.687172    24.345972    -29.812531    -10.253407    -9.899095    -3.835118    -9.190850    -51.043903    -53.111897    -16.242081    16.413816    -3.382059    -112.460976    54.330776    10.525003    -21.392296    2.135182    -10.548872    6.051210    42.099499    9.735532    -10.410811    -120.969398    -41.395668    14.418077    -15.984487    -18.170914    -7.297029    16.584507    -18.063856    35.506020    4.813169    19.480989    31.091560    7.833367    21.285357    -50.016041    0.000000    0.000000    0.000000    -11.247231    -19.468580    -21.555479    3.629312    17.648855    -0.423431    2.164832    26.477238    -13.802928    0.000000    0.000000    0.000000    
-0.598542    0.911300    -0.271661    -8.900874    -3.447754    88.390022    2.402968    -24.003370    -2.527072    1.324211    39.224792    -1.488538    11.684948    39.317490    -21.764027    24.759151    -29.942394    -10.115685    -9.827821    -3.860560    -9.202950    -50.907856    -53.082569    -16.265026    16.425833    -3.393733    -112.435539    54.489445    10.458240    -21.438381    2.121713    -10.574204    6.125558    42.040714    9.706419    -10.294220    -121.183037    -41.336525    14.209442    -16.174091    -18.331308    -7.421948    16.759222    -18.852013    35.631561    5.230078    20.281702    30.254272    6.899320    21.872324    -49.099274    0.000000    0.000000    0.000000    -11.543112    -20.066622    -21.769859    3.785697    18.545761    -0.474176    2.152755    26.047573    -13.776440    0.000000    0.000000    0.000000    
-0.600538    0.908909    -0.272637    -8.980616    -3.579438    88.508995    2.367511    -23.840723    -2.482694    1.604831    39.355007    -1.571801    11.660812    39.363182    -21.845358    25.125443    -30.014807    -10.037480    -9.872243    -3.863740    -9.272654    -50.741608    -53.048805    -16.268208    16.462391    -3.474998    -112.369324    54.448467    10.432961    -21.401360    2.004725    -10.623464    6.274954    41.989525    9.621696    -10.204445    -121.301819    -41.373672    14.115082    -16.380156    -18.446583    -7.622340    17.152855    -19.747927    35.841980    5.594316    21.560696    29.383389    6.159752    21.280079    -48.524578    0.000000    0.000000    0.000000    -11.834368    -20.682543    -21.977343    3.937141    19.486929    -0.504624    2.110101    25.569769    -13.728811    0.000000    0.000000    0.000000    
-0.602563    0.906305    -0.273623    -9.051870    -3.693376    88.593018    2.485219    -23.630495    -2.342215    1.548206    39.402313    -1.512080    11.698912    39.466808    -21.900064    25.629017    -30.084757    -9.852598    -9.693761    -3.771750    -9.258210    -50.822380    -53.111515    -16.521402    16.444294    -3.372165    -112.346375    54.557983    10.419190    -21.495005    2.044455    -10.673991    6.389071    41.963558    9.634636    -10.124964    -121.430885    -41.364037    14.004819    -16.541805    -18.548380    -7.679441    17.474569    -20.573151    34.919903    5.499855    22.858561    29.178072    5.140085    20.631739    -47.223869    0.000000    0.000000    0.000000    -12.172039    -21.321896    -22.086388    4.166375    20.478016    -0.689232    2.015632    25.053013    -13.621621    0.000000    0.000000    0.000000    
-0.604568    0.903441    -0.274632    -9.163185    -3.819250    88.648109    2.568576    -23.479303    -2.237893    1.580438    39.465160    -1.494175    11.744759    39.559734    -21.942329    26.001383    -30.160322    -9.705320    -9.611550    -3.773110    -9.244363    -50.713181    -52.973160    -16.579775    16.511974    -3.486621    -112.276016    54.492558    10.425838    -21.435518    2.057924    -10.716875    6.565162    41.914684    9.608161    -10.005847    -121.452110    -41.387150    14.010958    -16.550728    -18.555136    -7.677908    17.907093    -21.486698    35.130795    5.916421    24.172371    28.851297    4.483526    20.031025    -47.395626    0.000000    0.000000    0.000000    -12.506197    -22.025867    -22.274343    4.359812    21.518909    -0.808800    1.897146    24.471912    -13.467644    0.000000    0.000000    0.000000    
-0.606514    0.900368    -0.275643    -9.246279    -3.942775    88.692909    2.622903    -23.313128    -2.117912    1.689108    39.538952    -1.496601    11.735924    39.649590    -21.997528    26.404827    -30.203693    -9.579392    -9.582347    -3.767488    -9.305709    -50.598938    -53.026104    -16.645353    16.513054    -3.404902    -112.256790    54.317837    10.525970    -21.462309    2.039587    -10.716200    6.718875    41.857014    9.542000    -9.831328    -121.421936    -41.438766    14.085845    -16.648821    -18.490999    -7.704230    18.317953    -22.266148    35.259720    6.247159    25.259310    28.501646    3.832862    19.559439    -47.627235    0.000000    0.000000    0.000000    -12.851134    -22.710180    -22.472803    4.556949    22.575802    -0.967828    1.740024    23.894829    -13.250829    0.000000    0.000000    0.000000    
